<svg xmlns="http://www.w3.org/2000/svg" width="32" height="32"><path fill="#f7df1e" d="M0 0h32v32H0z"/><path d="M10.321 25c.645 1.053 1.483 1.826 2.967 1.826 1.246 0 2.042-.623 2.042-1.483 0-1.031-.818-1.396-2.19-1.996l-.751-.323c-2.17-.924-3.612-2.082-3.612-4.53 0-2.256 1.718-3.973 4.404-3.973 1.912 0 3.286.666 4.277 2.408l-2.342 1.503c-.515-.924-1.072-1.288-1.935-1.288-.88 0-1.439.559-1.439 1.288 0 .903.559 1.268 1.849 1.826l.752.323c2.555 1.095 3.997 2.212 3.997 4.723 0 2.708-2.127 4.19-4.983 4.19-2.792 0-4.597-1.33-5.48-3.074zm11.727.26c.472.839.902 1.547 1.935 1.547.988 0 1.611-.386 1.611-1.89V14.694h3.007v10.265c0 3.114-1.825 4.531-4.49 4.531-2.407 0-3.802-1.246-4.51-2.746z"/></svg>